{"title":"Lockout.2012.BRRIP.720P.H264-ZEKTORM","uid":7403780,"size":2138504691,"categoryP":"video","categoryS":"hd___movies","magnet":"?xt=urn:btih:d6c2c68c6b5c0b6893159d1df1c0146f1f88ae9d&amp;dn=Lockout.2012.BRRIP.720P.H264-ZEKTORM&amp;tr=udp%3A%2F%2Ftracker.openbittorrent.com%3A80&amp;tr=udp%3A%2F%2Fopen.demonii.com%3A1337&amp;tr=udp%3A%2F%2Ftracker.coppersurfer.tk%3A6969&amp;tr=udp%3A%2F%2Fexodus.desync.com%3A6969","seeders":1,"leechers":0,"uploader":"blowley","files":4,"time":1341177572,"description":"Title                            : Lockout\nYear                             : 2012\nGenre                            : Action | Thriller | Sci-Fi\niMDB URL                         : http://www.imdb.com/title/tt1592525/\n\nComplete name                    : Lockout.2012.BRRIP.720P.H264-ZEKTORM.mp4\nFormat                           : MPEG-4\nFormat profile                   : Base Media\nCodec ID                         : isom\nFile size                        : 1.99 GiB\nDuration                         : 1h 35mn (UNRATED)\nOverall bit rate                 : 2991 Kbps\nSubtitles                        : English (Format: srt)\n\nVideo\nID                               : 1\nFormat                           : AVC\nFormat/Info                      : Advanced Video Codec\nFormat profile                   : &lt;a class=&quot;__cf_email__&quot; href=&quot;/cdn-cgi/l/email-protection&quot; data-cfemail=&quot;bff7d6d8d7fff38b918f&quot;&gt;[email&amp;#160;protected]&lt;/a&gt;&lt;script cf-hash='f9e31' type=&quot;text/javascript&quot;&gt;\n/* &lt;![CDATA[ */!function(){try{var t=&quot;currentScript&quot;in document?document.currentScript:function(){for(var t=document.getElementsByTagName(&quot;script&quot;),e=t.length;e--;)if(t[e].getAttribute(&quot;cf-hash&quot;))return t[e]}();if(t&amp;&amp;t.previousSibling){var e,r,n,i,c=t.previousSibling,a=c.getAttribute(&quot;data-cfemail&quot;);if(a){for(e=&quot;&quot;,r=parseInt(a.substr(0,2),16),n=2;a.length-n;n+=2)i=parseInt(a.substr(n,2),16)^r,e+=String.fromCharCode(i);e=document.createTextNode(e),c.parentNode.replaceChild(e,c)}}}catch(u){}}();/* ]]&gt; */&lt;/script&gt;\nFormat settings, CABAC           : Yes\nFormat settings, ReFrames        : 12 frames\nCodec ID                         : avc1\nCodec ID/Info                    : Advanced Video Coding\nDuration                         : 1h 35mn\nBit rate mode                    : Variable\nBit rate                         : 2541 Kbps\nWidth                            : 1280 pixels\nHeight                           : 528 pixels\nDisplay aspect ratio             : 2.424\nFrame rate mode                  : Constant\nFrame rate                       : 23.976 fps\nResolution                       : 24 bits\nColorimetry                      : 4:2:0\nScan type                        : Progressive\nBits/(Pixel*Frame)               : 0.157\nStream size                      : 1.69 GiB (85%)\nTitle                            : Video\nWriting library                  : x264\n\nAudio\nID                               : 2\nFormat                           : AAC\nFormat/Info                      : Advanced Audio Codec\nFormat version                   : Version 4\nFormat profile                   : LC\nFormat settings, SBR             : No\nCodec ID                         : 40\nDuration                         : 1h 35mn\nBit rate mode                    : Variable\nBit rate                         : 445 Kbps\nMaximum bit rate                 : 541 Kbps\nChannel(s)                       : 6 channels\nChannel positions                : Front: L C R, Rear: L R, LFE\nSampling rate                    : 48.0 KHz\nResolution                       : 16 bits\nStream size                      : 304 MiB (15%)\nLanguage                         : English\n\n\nScreenshots:\n\n[img]http://img696.imageshack.us/img696/7950/snapl1.png[/img]\n\n[img]http://img826.imageshack.us/img826/6104/snapl2.png[/img]\n","torrent":{"xt":"urn:btih:d6c2c68c6b5c0b6893159d1df1c0146f1f88ae9d","amp;dn":"Lockout.2012.BRRIP.720P.H264-ZEKTORM","amp;tr":["udp%3A%2F%2Ftracker.openbittorrent.com%3A80","udp%3A%2F%2Fopen.demonii.com%3A1337","udp%3A%2F%2Ftracker.coppersurfer.tk%3A6969","udp%3A%2F%2Fexodus.desync.com%3A6969"],"infoHash":"d6c2c68c6b5c0b6893159d1df1c0146f1f88ae9d","infoHashBuffer":{"type":"Buffer","data":[214,194,198,140,107,92,11,104,147,21,157,29,241,192,20,111,31,136,174,157]},"announce":[],"urlList":[]}}